<?xml version="1.0" standalone="no"?>
<!DOCTYPE svg PUBLIC "-//W3C//DTD SVG 20010904//EN"
 "http://www.w3.org/TR/2001/REC-SVG-20010904/DTD/svg10.dtd">
<svg version="1.0" xmlns="http://www.w3.org/2000/svg"
 width="1600.000000pt" height="1600.000000pt" viewBox="0 0 1600.000000 1600.000000"
 preserveAspectRatio="xMidYMid meet">

<g transform="translate(0.000000,1600.000000) scale(0.100000,-0.100000)"
fill="#fb118e" stroke="none">
<path d="M11145 15000 c-65 -34 -96 -70 -145 -175 -101 -211 -181 -499 -215
-771 l-6 -51 -112 29 c-354 91 -956 186 -1289 205 -113 6 -118 5 -172 -21 -67
-33 -111 -84 -131 -150 -26 -86 -16 -443 19 -696 8 -52 12 -96 11 -98 -1 -1
-70 31 -152 72 -585 292 -1159 468 -1738 533 -183 20 -589 22 -755 4 -890 -98
-1641 -465 -2383 -1163 -1068 -1004 -2018 -2856 -2546 -4963 -206 -821 -328
-1590 -383 -2395 -15 -229 -15 -860 1 -1075 79 -1111 366 -1928 850 -2428 451
-466 1179 -760 2156 -871 286 -33 457 -41 860 -40 573 0 1042 37 1640 130
2164 335 4324 1200 5667 2270 355 283 711 645 961 977 456 605 709 1228 788
1937 17 147 17 590 1 740 -55 497 -183 969 -397 1466 -30 70 -55 131 -55 134
0 4 39 -4 88 -17 282 -76 588 -119 666 -93 52 17 112 73 143 134 65 128 154
428 192 646 88 505 33 998 -155 1372 -25 50 -44 91 -42 92 315 199 559 441
781 776 134 203 161 278 132 375 -28 97 -102 160 -352 299 -266 149 -507 234
-859 303 l-42 8 35 85 c75 184 134 420 168 670 44 317 22 916 -40 1135 -31
107 -125 175 -245 175 -210 0 -635 -78 -926 -171 -114 -36 -320 -117 -393
-154 -28 -14 -53 -25 -55 -25 -3 0 -24 28 -48 63 -23 34 -83 104 -133 156
-201 208 -462 365 -800 480 -294 100 -509 133 -590 91z m515 -597 c200 -74
381 -184 505 -308 91 -92 143 -174 181 -288 35 -106 92 -167 178 -192 81 -24
143 -10 249 54 273 164 590 278 961 346 99 18 143 22 150 15 7 -7 11 -113 11
-318 0 -329 -8 -409 -61 -651 -50 -224 -142 -441 -255 -602 -82 -117 -102
-162 -102 -231 0 -112 76 -211 184 -239 37 -10 70 -10 162 1 210 24 413 -2
643 -81 122 -42 374 -156 374 -170 0 -12 -115 -159 -192 -246 -127 -141 -294
-279 -409 -338 l-46 -24 -64 65 c-81 83 -215 197 -254 217 -165 84 -366 -51
-353 -237 6 -93 28 -126 163 -246 67 -60 133 -124 147 -142 14 -18 59 -67 100
-109 140 -146 243 -373 295 -652 26 -143 24 -462 -6 -634 -20 -122 -82 -377
-94 -389 -15 -15 -420 94 -612 166 -218 82 -260 104 -291 158 -107 185 -415
626 -608 872 -666 848 -1582 1747 -2411 2366 -164 123 -425 306 -482 339 -27
16 -35 30 -54 99 -29 108 -55 237 -74 371 -16 112 -36 338 -30 343 9 10 477
-62 705 -109 322 -66 654 -163 770 -226 266 -144 506 -459 679 -889 56 -140
84 -179 155 -217 57 -30 165 -30 222 0 85 45 134 127 134 225 0 73 -58 225
-167 440 -183 359 -417 640 -675 812 l-108 71 0 69 c0 131 40 346 96 518 l25
76 82 -25 c45 -14 125 -41 177 -60z m-4360 -1041 c486 -74 935 -222 1450 -478
791 -395 1561 -972 2398 -1799 480 -473 838 -879 1192 -1350 722 -961 1134
-1883 1225 -2744 19 -173 21 -508 5 -671 -92 -921 -591 -1775 -1466 -2509
-1411 -1183 -3917 -2110 -6274 -2321 -402 -35 -1060 -46 -1370 -22 -937 74
-1567 274 -1997 636 -455 381 -730 1129 -804 2186 -15 215 -15 794 0 1030 108
1713 592 3523 1342 5023 387 772 806 1386 1274 1866 569 583 1158 940 1810
1096 298 71 428 84 790 80 228 -2 319 -7 425 -23z"/>
<path d="M6869 12677 c-100 -38 -159 -126 -159 -234 1 -97 52 -178 144 -225
36 -19 65 -22 251 -29 116 -4 242 -12 280 -18 184 -28 283 7 339 117 51 101
39 205 -32 284 -49 55 -101 76 -230 94 -154 22 -546 29 -593 11z"/>
<path d="M6115 12560 c-75 -15 -299 -102 -452 -175 -535 -257 -989 -634 -1411
-1172 -86 -109 -111 -161 -112 -227 0 -79 19 -126 75 -182 59 -60 116 -80 201
-71 81 8 133 44 206 140 231 306 534 605 808 798 242 171 518 312 782 398 90
30 140 68 172 132 61 123 17 268 -100 330 -57 31 -112 40 -169 29z"/>
<path d="M5975 10974 c-44 -14 -76 -42 -258 -223 -235 -232 -259 -266 -260
-366 -2 -188 197 -309 360 -221 65 36 441 413 468 471 25 53 26 156 1 205 -61
118 -188 173 -311 134z"/>
<path d="M8225 10731 c-60 -15 -94 -43 -306 -258 -229 -231 -239 -246 -239
-340 0 -168 171 -287 335 -234 57 19 457 414 491 486 88 186 -81 394 -281 346z"/>
<path d="M10240 9708 c-26 -7 -91 -66 -252 -226 -120 -118 -225 -231 -235
-251 -9 -20 -19 -63 -21 -97 -13 -189 189 -322 355 -235 56 30 446 417 468
466 27 59 31 136 10 192 -23 59 -79 121 -130 144 -44 20 -137 24 -195 7z"/>
<path d="M7349 8331 c-67 -14 -123 -59 -316 -253 -214 -215 -232 -243 -233
-346 0 -143 101 -245 245 -245 99 -1 127 19 362 255 202 203 212 216 228 272
28 97 5 184 -67 253 -55 53 -144 79 -219 64z"/>
<path d="M4650 8301 c-59 -19 -96 -51 -296 -253 -196 -197 -213 -217 -228
-267 -20 -67 -20 -84 -1 -147 31 -105 126 -174 240 -174 37 0 76 8 101 19 54
25 445 410 472 466 62 126 13 274 -112 337 -43 22 -136 32 -176 19z"/>
<path d="M9700 7119 c-66 -30 -444 -406 -476 -474 -30 -63 -32 -152 -5 -210
24 -54 100 -119 156 -135 62 -17 146 -7 198 23 23 14 132 117 243 229 179 181
203 209 219 257 41 124 -13 253 -130 307 -64 30 -143 31 -205 3z"/>
<path d="M12128 6989 c-27 -4 -63 -16 -80 -28 -18 -11 -128 -116 -244 -233
-172 -174 -212 -221 -222 -254 -41 -143 30 -281 167 -320 64 -19 123 -14 184
17 51 26 438 418 463 469 42 85 26 192 -38 265 -63 72 -135 98 -230 84z"/>
<path d="M7795 6087 c-64 -32 -456 -423 -479 -479 -22 -51 -20 -153 3 -203 21
-46 69 -98 115 -123 45 -24 179 -23 226 2 52 28 434 413 459 463 43 86 36 186
-20 262 -66 92 -203 127 -304 78z"/>
<path d="M5769 5936 c-56 -20 -81 -41 -286 -248 -213 -214 -233 -243 -233
-343 0 -77 24 -129 83 -181 52 -46 102 -64 174 -64 88 0 129 30 354 257 185
187 208 214 224 262 41 124 -14 253 -130 307 -57 27 -129 31 -186 10z"/>
<path d="M10899 5316 c-56 -20 -81 -41 -286 -248 -210 -211 -232 -244 -233
-338 0 -179 188 -303 350 -229 63 29 441 405 475 473 45 89 27 205 -43 280
-62 66 -177 93 -263 62z"/>
<path d="M3225 4909 c-50 -25 -427 -398 -463 -459 -23 -38 -27 -56 -27 -120 0
-64 4 -82 28 -123 75 -127 239 -162 360 -78 75 52 415 404 437 452 22 49 26
123 9 183 -13 48 -82 123 -134 147 -55 26 -157 25 -210 -2z"/>
<path d="M8159 4257 c-57 -21 -82 -43 -286 -249 -211 -213 -232 -244 -233
-341 0 -71 19 -120 68 -171 51 -53 104 -76 178 -76 101 0 134 23 366 258 189
191 207 212 222 262 20 67 20 106 1 161 -35 99 -114 159 -218 165 -37 3 -76
-1 -98 -9z"/>
<path d="M5150 4051 c-59 -19 -96 -51 -296 -253 -196 -197 -213 -217 -228
-267 -20 -67 -20 -84 -1 -147 31 -105 126 -174 240 -174 37 0 76 8 101 19 54
25 445 410 472 466 62 126 13 274 -112 337 -43 22 -136 32 -176 19z"/>
</g>
</svg>
