<?xml version="1.0" standalone="no"?>
<!DOCTYPE svg PUBLIC "-//W3C//DTD SVG 20010904//EN"
 "http://www.w3.org/TR/2001/REC-SVG-20010904/DTD/svg10.dtd">
<svg version="1.0" xmlns="http://www.w3.org/2000/svg"
 width="512.000000pt" height="512.000000pt" viewBox="0 0 512.000000 512.000000"
 preserveAspectRatio="xMidYMid meet">

<g transform="translate(0.000000,512.000000) scale(0.100000,-0.100000)"
fill="#fb118e" stroke="none">
<path d="M2824 5085 c-227 -114 -514 -483 -607 -780 -33 -107 -51 -195 -40
-205 4 -5 37 -16 73 -25 137 -35 333 -118 497 -210 l81 -45 19 24 c10 14 33
52 52 85 68 121 236 276 398 369 l65 37 -6 41 c-10 74 -76 257 -136 379 -96
194 -239 365 -304 365 -13 0 -54 -16 -92 -35z"/>
<path d="M4047 4469 c-410 -40 -844 -252 -1041 -508 -46 -60 -106 -161 -106
-178 0 -6 38 -38 83 -71 257 -187 504 -430 696 -685 46 -62 90 -113 97 -115
19 -5 101 40 171 93 268 201 475 630 515 1071 9 99 9 150 0 212 -20 140 -42
163 -176 181 -86 12 -111 12 -239 0z"/>
<path d="M1672 4059 c-747 -70 -1329 -717 -1556 -1730 -110 -493 -142 -1089
-77 -1427 82 -422 334 -710 726 -831 178 -55 270 -65 560 -65 290 0 492 17
771 64 909 153 1562 556 1834 1133 197 418 180 888 -49 1362 -279 579 -881
1150 -1450 1375 -248 98 -523 142 -759 119z m725 -695 c33 -21 63 -73 63 -110
0 -97 -168 -220 -275 -200 -115 22 -49 253 90 318 44 20 84 18 122 -8z m-1100
-175 c114 -71 66 -220 -94 -291 -67 -30 -130 -29 -156 3 -38 47 -7 169 61 243
63 68 127 83 189 45z m1988 -729 c22 0 77 -52 91 -86 20 -47 8 -88 -41 -142
-50 -56 -121 -94 -186 -100 -41 -4 -51 -1 -73 21 -19 19 -26 37 -26 64 0 49
48 149 91 190 38 36 97 65 117 58 8 -3 20 -5 27 -5z m-1064 -193 c49 -33 74
-83 65 -131 -11 -55 -94 -136 -169 -164 -66 -25 -86 -27 -121 -11 -73 34 -47
177 51 271 64 62 118 73 174 35z m-1100 -172 c60 -32 83 -102 55 -168 -43
-101 -229 -183 -294 -130 -45 36 -23 156 44 236 58 70 133 94 195 62z m2008
-740 c48 -25 81 -72 81 -116 0 -50 -19 -87 -65 -127 -50 -44 -108 -72 -163
-79 -38 -4 -52 -1 -74 17 -24 18 -28 29 -28 68 1 86 67 194 143 231 50 25 68
26 106 6z m-1078 -188 c19 -12 42 -40 53 -61 16 -32 17 -44 8 -74 -34 -111
-214 -209 -299 -163 -52 27 -35 146 33 235 62 82 141 106 205 63z m-1093 -176
c29 -15 62 -73 62 -108 0 -118 -227 -252 -311 -184 -70 56 24 268 135 305 39
14 71 10 114 -13z"/>
<path d="M4291 3301 c-103 -174 -223 -305 -361 -392 -128 -82 -121 -61 -57
-175 75 -133 137 -274 182 -419 21 -66 42 -124 46 -129 22 -25 282 57 419 132
260 142 531 403 586 566 14 40 14 47 -1 76 -39 76 -178 182 -354 270 -103 52
-304 124 -377 136 l-41 6 -42 -71z"/>
</g>
</svg>
